<?xml version="1.0" standalone="no"?>
<!DOCTYPE svg PUBLIC "-//W3C//DTD SVG 20010904//EN"
 "http://www.w3.org/TR/2001/REC-SVG-20010904/DTD/svg10.dtd">
<svg version="1.0" xmlns="http://www.w3.org/2000/svg"
 width="192.000000pt" height="192.000000pt" viewBox="0 0 192.000000 192.000000"
 preserveAspectRatio="xMidYMid meet">
<metadata>
Created by potrace 1.14, written by Peter Selinger 2001-2017
</metadata>
<g transform="translate(0.000000,192.000000) scale(0.100000,-0.100000)"
fill="#000000" stroke="none">
<path d="M380 1309 c-13 -6 -48 -26 -77 -45 -49 -33 -51 -36 -42 -63 6 -15 23
-40 38 -55 26 -25 28 -31 18 -56 -8 -22 -8 -35 2 -53 7 -13 11 -37 9 -53 -2
-23 -12 -34 -48 -52 -24 -12 -52 -20 -61 -17 -12 4 -20 -1 -24 -16 -9 -27 18
-65 67 -97 45 -30 41 -47 -23 -107 -38 -36 -55 -45 -83 -45 -32 0 -35 -2 -27
-22 13 -36 58 -34 137 6 38 19 85 51 105 70 l36 36 29 -22 c16 -12 56 -47 90
-78 75 -69 109 -85 168 -76 47 7 144 72 129 86 -4 5 -51 22 -102 40 -95 31
-176 75 -240 128 l-34 29 28 37 c16 21 41 44 57 52 53 27 22 111 -44 118 -13
1 -35 10 -48 19 -14 9 -34 17 -47 17 -33 0 -35 15 -2 16 16 1 37 8 47 17 9 8
29 18 44 22 24 6 33 19 52 78 9 30 -4 46 -61 72 -62 28 -59 27 -93 14z"/>
<path d="M1508 1251 c-41 -35 -63 -46 -107 -55 -28 -5 -36 -2 -53 19 -30 38
-69 33 -117 -15 -22 -22 -56 -47 -76 -55 -40 -17 -42 -25 -18 -63 24 -38 34
-42 71 -36 29 6 32 4 32 -19 0 -35 -42 -45 -77 -17 -32 25 -73 27 -73 3 1 -77
21 -198 36 -214 16 -18 16 -20 -2 -34 -10 -8 -29 -15 -41 -15 -34 0 -30 -36 7
-55 76 -39 79 -39 121 6 l39 42 0 -48 c0 -51 31 -115 55 -115 8 0 19 15 26 34
12 32 14 33 34 20 21 -14 55 -10 55 6 0 10 22 19 90 36 76 18 118 17 169 -6
52 -24 84 -25 105 -4 29 28 20 61 -26 92 -59 40 -76 44 -115 31 -19 -6 -37 -8
-40 -5 -15 15 22 94 64 137 53 54 54 79 4 95 -19 6 -43 23 -54 38 -11 15 -32
32 -46 38 l-26 10 28 24 c15 13 38 24 51 24 25 0 56 28 56 52 0 20 -28 44 -73
63 -50 21 -61 19 -99 -14z m-73 -187 c-21 -32 -19 -41 4 -20 28 25 41 12 41
-40 0 -42 -2 -46 -35 -60 -20 -8 -35 -21 -35 -30 0 -9 16 -31 35 -50 27 -25
35 -41 35 -68 0 -38 -4 -40 -109 -61 l-34 -7 6 72 c3 40 16 96 28 126 13 30
19 57 14 61 -4 5 -10 2 -12 -4 -3 -7 -9 -13 -14 -13 -16 0 -10 92 9 130 l17
37 33 -25 c31 -24 32 -26 17 -48z m-197 -196 c-5 -32 -28 -35 -28 -4 0 17 5
26 16 26 10 0 14 -7 12 -22z"/>
</g>
</svg>
