<?xml version="1.0" standalone="no"?>
<!DOCTYPE svg PUBLIC "-//W3C//DTD SVG 20010904//EN"
 "http://www.w3.org/TR/2001/REC-SVG-20010904/DTD/svg10.dtd">
<svg version="1.0" xmlns="http://www.w3.org/2000/svg"
 width="300.000000pt" height="300.000000pt" viewBox="0 0 300.000000 300.000000"
 preserveAspectRatio="xMidYMid meet">
<metadata>
Created by potrace 1.11, written by Peter Selinger 2001-2013
</metadata>
<g transform="translate(0.000000,300.000000) scale(0.100000,-0.100000)"
fill="#000000" stroke="none">
<path d="M691 2139 c-50 -26 -146 -81 -214 -121 -67 -40 -126 -75 -131 -77
-41 -17 -216 -144 -221 -160 -9 -29 13 -103 28 -95 7 4 48 33 92 63 148 104
279 187 414 262 l105 59 135 -72 c145 -76 295 -164 401 -235 60 -40 66 -42 78
-26 20 27 26 62 15 86 -12 25 -159 111 -373 217 -158 79 -161 81 -142 87 17 7
15 20 -5 26 -10 4 -35 13 -55 20 -36 14 -39 13 -127 -34z"/>
<path d="M2203 2183 c-8 -3 -10 -33 -6 -109 l6 -104 -29 -1 c-31 -1 -90 -6
-141 -13 -30 -3 -31 -2 -22 22 11 28 4 39 -70 109 -72 67 -83 70 -125 37 l-35
-28 34 -29 c48 -39 115 -109 115 -119 0 -4 -10 -8 -22 -9 -13 0 -32 -2 -43 -4
-11 -2 -56 -11 -100 -20 -89 -17 -113 -34 -122 -87 -5 -34 -4 -36 16 -31 22 6
22 5 16 -81 l-7 -86 39 0 c53 0 63 10 68 66 9 98 16 131 28 132 7 0 68 10 137
21 181 29 220 32 480 36 244 4 325 -2 341 -26 6 -8 8 -49 5 -93 l-5 -78 41 5
c22 3 47 11 54 19 18 18 25 105 13 153 -21 78 -65 104 -187 112 -48 3 -90 8
-94 12 -4 4 26 37 67 75 l75 69 -37 23 c-21 13 -43 24 -49 24 -6 0 -43 -30
-82 -68 -58 -54 -72 -73 -72 -97 l0 -30 -95 -2 -95 -3 -1 43 c0 47 -6 149 -8
157 -1 6 -71 8 -88 3z"/>
<path d="M717 1944 c-1 -1 -37 -5 -79 -8 -101 -8 -121 -17 -141 -59 -24 -51
-22 -59 16 -52 17 3 46 7 62 10 17 3 66 8 110 11 44 4 87 8 95 10 8 1 54 3
103 3 l87 1 0 46 0 45 -126 -2 c-69 -2 -126 -4 -127 -5z"/>
<path d="M729 1786 c-2 -2 -33 -6 -69 -10 -182 -17 -348 -50 -372 -74 -10 -10
-21 -35 -25 -55 -6 -37 -6 -37 25 -31 28 6 31 4 27 -17 -5 -37 -16 -140 -30
-289 -2 -25 -7 -103 -10 -175 -4 -71 -8 -149 -9 -172 -3 -48 6 -52 74 -33 19
5 49 11 65 14 17 3 82 14 145 25 63 10 144 22 180 26 101 10 100 9 100 66 l0
50 -47 -7 c-72 -9 -220 -32 -288 -44 -33 -6 -75 -14 -94 -17 l-33 -6 7 109 c3
60 9 112 13 116 9 9 46 15 137 23 39 4 82 9 98 11 31 5 33 2 11 -31 -15 -24
-15 -25 10 -34 37 -15 196 -80 231 -95 17 -8 59 -26 95 -42 85 -36 234 -114
317 -164 40 -25 70 -37 75 -32 5 5 12 27 15 48 6 50 -2 58 -146 133 l-113 58
89 47 c48 25 112 58 140 73 29 16 53 30 53 33 0 3 -14 21 -30 40 l-29 35 -173
-88 -173 -88 -129 54 c-70 30 -124 57 -120 60 9 5 76 7 334 12 74 2 138 4 141
4 4 1 5 16 3 34 -1 17 -5 79 -8 137 -10 176 -26 232 -83 270 -35 24 -42 25
-219 27 -100 1 -183 0 -185 -1z m324 -95 c17 -3 47 -43 47 -64 0 -22 -4 -23
-57 -23 -76 -1 -350 -14 -388 -19 -16 -2 -55 -6 -85 -10 -30 -3 -76 -8 -102
-11 l-48 -7 0 34 c0 55 12 64 105 75 27 3 52 7 55 9 3 2 50 6 105 10 55 4 101
8 102 9 2 2 252 -1 266 -3z m32 -180 c30 -1 31 -3 31 -48 l1 -48 -66 -1 c-163
-1 -403 -17 -539 -34 -123 -16 -122 -17 -116 33 3 23 8 45 12 49 4 4 34 10 67
12 33 3 78 8 100 11 63 9 139 14 285 21 74 4 136 7 137 8 1 1 15 1 30 0 15 -1
42 -2 58 -3z"/>
<path d="M2208 1775 c-2 -2 -30 -5 -63 -9 -33 -3 -71 -8 -85 -10 -14 -3 -42
-7 -63 -10 -97 -15 -125 -27 -136 -59 -18 -51 -15 -68 13 -61 22 5 24 3 20
-23 -9 -62 -9 -188 1 -186 30 4 175 18 265 25 47 4 50 0 50 -64 l0 -63 -38 -1
c-58 -1 -245 -15 -262 -19 -8 -2 -37 -6 -64 -10 -27 -3 -57 -10 -67 -16 -18
-9 -37 -74 -26 -85 3 -4 57 1 119 10 128 18 193 24 258 26 87 3 81 9 79 -80
-1 -50 -6 -80 -13 -81 -6 0 -29 -2 -51 -4 -271 -19 -320 -23 -399 -35 -58 -9
-84 -27 -86 -60 -1 -8 -3 -23 -5 -33 -4 -19 14 -19 95 -2 14 3 45 8 70 11 25
3 54 8 65 10 11 2 56 7 100 10 44 3 100 8 125 10 52 4 676 4 733 0 30 -2 37 1
38 16 4 69 3 72 -21 78 -14 3 -143 5 -288 5 l-263 0 3 80 3 80 223 -1 c149 0
222 3 223 10 4 56 4 68 -2 78 -5 8 -74 12 -226 12 l-218 1 -3 63 c-3 59 -2 62
20 63 13 1 86 3 163 4 l140 2 0 44 c0 70 -15 170 -31 200 -7 15 -28 38 -46 51
-31 22 -42 23 -190 24 -87 0 -159 0 -160 -1z m278 -98 c26 -9 44 -47 44 -92 0
-35 0 -35 -47 -36 -116 -2 -322 -14 -436 -25 l-58 -6 4 63 c2 40 9 66 18 71
42 23 421 43 475 25z"/>
</g>
</svg>
